<?xml version="1.0" encoding="UTF-8" standalone="no"?>
<svg
   xmlns:dc="http://purl.org/dc/elements/1.1/"
   xmlns:cc="http://creativecommons.org/ns#"
   xmlns:rdf="http://www.w3.org/1999/02/22-rdf-syntax-ns#"
   xmlns:svg="http://www.w3.org/2000/svg"
   xmlns="http://www.w3.org/2000/svg"
   viewBox="0 0 1706.6667 1706.6667"
   height="1706.6667"
   width="1706.6667"
   id="svg2"
   version="1.1">
  <metadata
     id="metadata8">
    <rdf:RDF>
      <cc:Work
         rdf:about="">
        <dc:format>image/svg+xml</dc:format>
        <dc:type
           rdf:resource="http://purl.org/dc/dcmitype/StillImage" />
        <dc:title></dc:title>
      </cc:Work>
    </rdf:RDF>
  </metadata>
  <defs
     id="defs6" />
  <path
     id="path817"
     d="M 533.33334,1599.7307 V 1493.3334 H 423.54386 c -72.93202,0 -112.57583,-0.3876 -118.08935,-1.1545 -46.58818,-6.4798 -84.48694,-44.3786 -90.96677,-90.9667 -1.63369,-11.7458 -1.63369,-1297.3452 0,-1309.091023 C 221.0156,45.18765 259.335,7.1835926 306.27786,1.0864455 312.62448,0.26211834 472.23467,0.01502548 859.20002,0.23046549 L 1403.2,0.53333334 l 9.0667,2.47800046 c 12.888,3.522419 30.9304,12.6276982 41.1347,20.7590712 20.3159,16.188885 35.1623,42.357782 38.7775,68.350772 1.6337,11.745823 1.6337,1297.345223 0,1309.091023 -3.6162,25.9999 -18.1715,51.6876 -38.6206,68.1591 -10.3427,8.3309 -28.122,17.3516 -41.2916,20.9501 l -9.0667,2.4775 -274.9333,0.2832 -274.93335,0.2832 v 106.3814 106.3813 l -80,-79.9946 -80,-79.9947 -80,79.9947 -80.00001,79.9946 z m 0,-266.3973 V 1280 h 160.00001 160 v 53.3334 53.3333 H 1120 1386.6667 V 1280 1173.3334 H 853.33335 320.00001 V 1280 1386.6667 H 426.66667 533.33334 Z M 1386.6667,586.66668 V 106.66667 H 906.66668 426.66667 v 480.00001 480.00002 h 480.00001 480.00002 z m -533.33335,160 V 533.33334 H 746.66668 640.00001 V 480.00001 426.66667 H 746.66668 853.33335 V 320.00001 213.33334 h 53.33333 53.33334 v 106.66667 106.66666 h 106.66668 106.6667 v 53.33334 53.33333 H 1066.6667 960.00002 v 213.33334 213.33334 h -53.33334 -53.33333 z"
     style="fill:#000000;stroke-width:1.06666672" />
</svg>
